HIERARCHY
ROOT Hips
{
	OFFSET 0.00000 0.00000 0.00000
	CHANNELS 6 Xposition Yposition Zposition Zrotation Yrotation Xrotation 
	JOINT LHipJoint
	{
		OFFSET 0 0 0
		CHANNELS 3 Zrotation Yrotation Xrotation
		JOINT LeftUpLeg
		{
			OFFSET 1.29432 -1.88279 0.59910
			CHANNELS 3 Zrotation Yrotation Xrotation
			JOINT LeftLeg
			{
				OFFSET 2.63039 -7.22694 0.00000
				CHANNELS 3 Zrotation Yrotation Xrotation
				JOINT LeftFoot
				{
					OFFSET 2.70674 -7.43672 0.00000
					CHANNELS 3 Zrotation Yrotation Xrotation
					JOINT LeftToeBase
					{
						OFFSET 0.15066 -0.41394 2.09027
						CHANNELS 3 Zrotation Yrotation Xrotation
						End Site
						{
							OFFSET 0.00000 -0.00000 1.07518
						}
					}
				}
			}
		}
	}
	JOINT RHipJoint
	{
		OFFSET 0 0 0
		CHANNELS 3 Zrotation Yrotation Xrotation
		JOINT RightUpLeg
		{
			OFFSET -1.37068 -1.88279 0.59910
			CHANNELS 3 Zrotation Yrotation Xrotation
			JOINT RightLeg
			{
				OFFSET -2.57023 -7.06166 0.00000
				CHANNELS 3 Zrotation Yrotation Xrotation
				JOINT RightFoot
				{
					OFFSET -2.76461 -7.59570 0.00000
					CHANNELS 3 Zrotation Yrotation Xrotation
					JOINT RightToeBase
					{
						OFFSET -0.24175 -0.64785 2.19719
						CHANNELS 3 Zrotation Yrotation Xrotation
						End Site
						{
							OFFSET -0.00000 -0.00000 1.14803
						}
					}
				}
			}
		}
	}
	JOINT LowerBack
	{
		OFFSET 0 0 0
		CHANNELS 3 Zrotation Yrotation Xrotation
		JOINT Spine
		{
			OFFSET -0.03138 2.03983 -0.23106
			CHANNELS 3 Zrotation Yrotation Xrotation
			JOINT Spine1
			{
				OFFSET -0.00325 2.06238 -0.06878
				CHANNELS 3 Zrotation Yrotation Xrotation
				JOINT Neck
				{
					OFFSET 0 0 0
					CHANNELS 3 Zrotation Yrotation Xrotation
					JOINT Neck1
					{
						OFFSET -0.00002 1.75318 0.18090
						CHANNELS 3 Zrotation Yrotation Xrotation
						JOINT Head
						{
							OFFSET 0.08806 1.75856 -0.25387
							CHANNELS 3 Zrotation Yrotation Xrotation
							End Site
							{
								OFFSET 0.02554 1.78597 -0.10684
							}
						}
					}
				}
				JOINT LeftShoulder
				{
					OFFSET 0 0 0
					CHANNELS 3 Zrotation Yrotation Xrotation
					JOINT LeftArm
					{
						OFFSET 3.09657 1.33597 -0.04414
						CHANNELS 3 Zrotation Yrotation Xrotation
						JOINT LeftForeArm
						{
							OFFSET 5.34298 -0.00000 -0.00000
							CHANNELS 3 Zrotation Yrotation Xrotation
							JOINT LeftHand
							{
								OFFSET 3.67262 -0.00000 -0.00000
								CHANNELS 3 Zrotation Yrotation Xrotation
								JOINT LeftFingerBase
								{
									OFFSET 0 0 0
									CHANNELS 3 Zrotation Yrotation Xrotation
									JOINT LeftHandIndex1
									{
										OFFSET 0.59930 -0.00000 -0.00000
										CHANNELS 3 Zrotation Yrotation Xrotation
										End Site
										{
											OFFSET 0.48317 -0.00000 -0.00000
										}
									}
								}
								JOINT LThumb
								{
									OFFSET 0 0 0
									CHANNELS 3 Zrotation Yrotation Xrotation
									End Site
									{
										OFFSET 0.49055 -0.00000 0.49055
									}
								}
							}
						}
					}
				}
				JOINT RightShoulder
				{
					OFFSET 0 0 0
					CHANNELS 3 Zrotation Yrotation Xrotation
					JOINT RightArm
					{
						OFFSET -3.16460 1.32273 -0.23382
						CHANNELS 3 Zrotation Yrotation Xrotation
						JOINT RightForeArm
						{
							OFFSET -5.54967 -0.01834 0.03348
							CHANNELS 3 Zrotation Yrotation Xrotation
							JOINT RightHand
							{
								OFFSET -3.69401 -0.00000 0.00000
								CHANNELS 3 Zrotation Yrotation Xrotation
								JOINT RightFingerBase
								{
									OFFSET 0 0 0
									CHANNELS 3 Zrotation Yrotation Xrotation
									JOINT RightHandIndex1
									{
										OFFSET -0.63811 -0.00000 0.00000
										CHANNELS 3 Zrotation Yrotation Xrotation
										End Site
										{
											OFFSET -0.51446 -0.00000 0.00000
										}
									}
								}
								JOINT RThumb
								{
									OFFSET 0 0 0
									CHANNELS 3 Zrotation Yrotation Xrotation
									End Site
									{
										OFFSET -0.52232 -0.00000 0.52232
									}
								}
							}
						}
					}
				}
			}
		}
	}
}
MOTION
Frames: 15
Frame Time: 0.0689655
0.00 0.00 0.00 0 0 0 0 0 0 -21 0 0 0 0 0 0 0 0 0 0 0 0 0 0 21 0 0 0 0 0 0 0 0 0 0 0 0 0 0 0 0 0 0 0 0 0 0 -16 0 0 21 0 0 11 0 0 0 -8 0 0 0 0 0 0 0 0 0 0 0 0 0 0 0 0 0 0 0 0 8 0 0 0 0 0 0 0 0 0 0 0 0 0 0 0 0 0
0.00 0.00 0.00 -0.4646 -14.1445 3.7184 0.0000 0.0000 0.0000 -15.8207 -1.9499 -19.7609 8.8887 16.7356 55.7045 0.2577 2.1038 -10.5981 0.0248 -1.0171 -2.7959 0.0000 0.0000 0.0000 25.1921 6.3565 -9.8271 -1.5545 -7.8689 22.3166 -0.6029 3.0098 -13.9500 -0.0001 -0.0680 0.1869 0.1225 0.2220 -0.0551 1.3888 0.2744 1.4917 1.3579 0.1278 1.5522 -1.7537 0.8462 -9.1685 -3.1690 2.2271 24.3624 -0.5565 0.5221 9.1714 0.0000 0.0000 0.0000 -88.4683 7.4808 14.5133 17.0245 -26.8900 -4.0984 -0.0000 -0.0000 17.0302 16.2318 30.5599 8.4199 -7.1250 0.0000 -0.0000 -17.7704 60.6884 -6.9223 0.0000 0.0000 0.0000 83.1320 0.9662 13.4489 -13.9883 22.7180 -2.8236 0.0000 0.0000 22.0135 -19.9783 20.7297 -7.3325 7.1250 -0.0000 -0.0000 5.4613 -8.1270 4.6562
0.00 0.00 0.00 -0.3280 -14.6843 3.7723 0.0000 0.0000 0.0000 -15.6581 -5.3292 -26.4118 5.0015 13.3855 40.8293 0.6346 2.6328 -16.2308 0.0280 -1.0804 -2.9701 0.0000 0.0000 0.0000 25.8370 4.3065 -6.2883 -1.5838 -7.9392 22.5295 -0.8161 2.9037 -16.3345 -0.0001 0.0767 -0.2108 1.1695 0.4997 1.1288 0.1386 0.6774 0.5667 -0.5211 0.3405 -0.0408 -3.9471 0.7342 -9.4606 -2.2252 2.3213 25.5794 0.1497 0.4291 9.6304 0.0000 -0.0000 0.0000 -89.0530 6.2314 10.9945 18.0193 -28.1819 -4.5584 -0.0000 -0.0000 18.5205 12.4247 29.7599 6.2409 -7.1250 0.0000 -0.0000 -21.1986 59.0524 -7.4894 0.0000 -0.0000 0.0000 80.3624 7.6494 21.1562 -16.0202 25.5481 -3.6547 0.0000 0.0000 15.2483 -20.3233 21.0478 -7.5769 7.1250 -0.0000 -0.0000 5.2653 -7.7458 4.5273
0.00 0.00 0.00 -1.0878 -15.4994 4.5310 0.0000 0.0000 0.0000 -15.0873 -5.6989 -27.1734 1.9791 8.8224 25.2412 0.0007 6.4532 -9.2236 0.0250 1.0214 2.8076 0.0000 0.0000 0.0000 26.9835 3.3320 -1.9131 -1.0154 -6.4111 17.9819 -0.6413 1.4366 -14.7043 -0.0111 -0.6796 1.8676 1.6464 0.9115 0.5451 -0.1452 1.2216 0.4158 -1.0754 0.6147 0.1577 -4.5989 0.5806 -9.3418 -2.3686 2.2648 25.5498 0.2035 0.3269 9.5989 -0.0000 -0.0000 0.0000 -89.3519 6.0157 11.9278 18.9849 -29.4000 -5.0235 -0.0000 -0.0000 18.2619 9.9673 31.6500 5.2687 -7.1250 0.0000 -0.0000 -25.2678 60.2073 -9.7409 -0.0000 -0.0000 0.0000 77.9402 13.3812 23.9633 -18.1784 28.3850 -4.6337 0.0000 0.0000 14.1745 -18.8511 21.2350 -7.0495 7.1250 -0.0000 -0.0000 6.2153 -7.7647 5.3510
0.00 0.00 0.00 0.4240 -17.3126 2.4994 0.0000 0.0000 0.0000 -19.9086 -3.5208 -19.9317 0.9301 6.1437 17.2019 -0.1441 6.9259 -4.3443 0.4285 4.2010 11.6429 0.0000 0.0000 0.0000 22.2747 1.2189 6.1522 -2.2774 -9.4214 27.1226 0.0346 4.4759 -1.5925 -0.6832 5.2848 -14.7226 -1.7022 3.6802 -2.1466 -4.4315 5.0128 0.2662 -3.4193 2.5083 1.7284 -3.9986 -1.8531 -9.0273 -1.3853 -1.4516 29.6745 0.0066 -1.3009 11.0990 -0.0000 0.0000 0.0000 -84.7175 4.7590 6.4898 12.8110 -21.0097 -2.3851 -0.0000 -0.0000 27.4526 14.3056 27.4909 6.7134 -7.1250 0.0000 -0.0000 -17.6975 57.3280 -5.4589 -0.0000 0.0000 0.0000 70.8086 38.6620 24.1538 -27.2449 38.4117 -9.6509 0.0000 -0.0000 -2.3848 -23.0934 22.4403 -9.2447 7.1250 -0.0000 -0.0000 3.6422 -5.8424 3.2592
0.00 0.00 0.00 2.4073 -15.9832 1.2811 0.0000 0.0000 0.0000 -23.0816 -1.3132 -16.6083 0.8657 5.9327 16.5893 -0.0467 5.0035 -5.2489 0.4214 4.1667 11.5462 0.0000 0.0000 0.0000 17.6657 2.0224 -3.2375 -5.6815 -14.1124 43.6896 0.0823 6.6458 6.9845 -0.8897 6.0124 -16.8203 -3.6083 3.8798 -0.6514 -5.3611 5.2446 0.5309 -3.4166 2.6123 1.0936 -4.0798 -2.2589 -8.6283 -2.5038 -1.6523 31.2443 -0.4298 -1.5567 11.6337 -0.0000 0.0000 0.0000 -83.5170 4.7890 8.1817 13.2764 -21.6909 -2.5545 -0.0000 -0.0000 24.4767 15.2805 28.3009 7.3802 -7.1250 0.0000 -0.0000 -17.2019 58.3134 -5.7111 -0.0000 0.0000 0.0000 66.0615 46.8936 23.1580 -29.3223 40.3054 -10.9686 0.0000 -0.0000 -4.8715 -24.9147 21.7419 -9.7628 7.1250 -0.0000 -0.0000 2.4242 -6.2617 2.1473
0.00 0.00 0.00 2.4271 -11.8837 1.5549 0.0000 0.0000 0.0000 -23.5481 -2.2548 -15.2315 1.1555 6.8249 19.1975 0.1587 1.4121 -8.1801 0.5148 4.5988 12.7678 0.0000 0.0000 0.0000 15.5767 1.4734 -13.2939 -7.8224 -15.9871 51.9206 -0.0959 -1.9331 -6.8985 -0.7000 5.3479 -14.9035 -3.3194 3.8015 0.5214 -5.7167 5.1282 1.4856 -3.9945 2.5621 1.4769 -4.5868 -3.2918 -7.4616 -1.7976 -3.2798 31.1859 -0.2557 -2.2473 11.4128 0.0000 -0.0000 0.0000 -81.5601 2.5097 13.5496 15.2502 -24.4935 -3.3290 -0.0000 -0.0000 22.6085 14.8811 27.3623 6.9632 -7.1250 0.0000 -0.0000 -17.0239 57.3269 -5.2422 0.0000 -0.0000 0.0000 59.6736 57.4430 17.0072 -31.3680 42.0375 -12.3155 0.0000 -0.0000 -13.2437 -30.7207 21.9519 -12.5247 7.1250 -0.0000 -0.0000 -1.1770 -4.8650 -1.0731
0.00 0.00 0.00 1.6274 -5.9230 3.1345 0.0000 0.0000 0.0000 -22.1552 -5.1070 -14.1421 1.4389 7.5838 21.4568 0.3550 -0.8477 -10.9888 0.1892 2.8012 7.7259 0.0000 0.0000 0.0000 13.9528 6.0468 -18.5530 -4.5143 -12.8150 38.6797 -0.1762 -11.2660 -18.3421 -0.0785 1.8069 -4.9723 -3.2274 3.7011 1.8950 -4.9410 4.9438 2.2179 -3.3124 2.4678 1.3908 -5.6894 -4.8393 -6.5189 -0.8433 -5.5797 29.7768 0.0584 -3.2635 10.7926 -0.0000 0.0000 0.0000 -80.7057 0.6354 20.1597 19.7886 -30.3868 -5.4240 -0.0000 -0.0000 13.9093 11.1530 30.9354 5.7872 -7.1250 0.0000 -0.0000 -23.4385 59.8402 -8.7800 -0.0000 0.0000 0.0000 49.4946 69.0133 4.3820 -29.7373 40.6672 -11.2381 0.0000 -0.0000 -19.0495 -42.0277 23.5404 -19.7972 7.1250 -0.0000 -0.0000 -7.6890 0.1703 -7.7822
0.00 0.00 0.00 2.0054 -1.8462 4.9630 0.0000 0.0000 0.0000 -21.8004 -5.3936 -12.3001 1.0715 6.5803 18.4777 0.3274 -3.7929 -10.1712 0.1398 2.4100 6.6403 0.0000 0.0000 0.0000 9.4569 14.9299 -17.1693 -1.6046 -7.9888 22.6800 -0.1936 -9.8541 -16.8575 -0.0019 0.2842 -0.7809 -2.9961 3.7652 1.3379 -4.9515 5.0756 2.2271 -3.4106 2.5389 1.7380 -6.8523 -5.6661 -5.3893 -0.1668 -6.7763 28.9638 0.4070 -3.8396 10.3834 0.0000 0.0000 0.0000 -79.8013 0.3462 23.2751 22.3528 -33.3735 -6.7789 -0.0000 -0.0000 13.6172 11.5981 30.4545 5.9388 -7.1250 0.0000 -0.0000 -22.5899 59.5043 -8.2588 0.0000 0.0000 0.0000 46.3658 71.6397 0.8632 -26.5366 37.7337 -9.2141 0.0000 -0.0000 -8.3964 -46.8768 26.3085 -25.3251 7.1250 -0.0000 -0.0000 -9.7561 5.4371 -10.7878
0.00 0.00 0.00 2.1755 1.9560 5.6840 0.0000 0.0000 0.0000 -21.1640 -5.5662 -10.4817 0.8572 5.9044 16.5073 0.2506 -6.4022 -9.3357 0.1652 2.6183 7.2178 0.0000 0.0000 0.0000 6.5786 20.1244 -15.7363 -0.8777 -5.9726 16.7049 -0.1753 -7.4702 -13.8681 -0.2909 3.4687 -9.5864 -1.9848 3.5003 0.8766 -5.4344 4.8000 2.7331 -4.4280 2.4342 2.6373 -7.5696 -5.9270 -4.5593 0.6490 -7.2779 29.0655 0.7857 -4.0519 10.3502 -0.0000 0.0000 0.0000 -78.6844 -0.2369 23.3115 23.1712 -34.2755 -7.2345 -0.0000 -0.0000 11.8183 14.5547 29.5271 7.2919 -7.1250 0.0000 -0.0000 -18.8016 59.3172 -6.7220 -0.0000 0.0000 0.0000 50.8780 68.9305 7.9410 -28.5498 39.6175 -10.4724 0.0000 0.0000 19.6842 -53.5637 27.4563 -31.9870 7.1250 -0.0000 -0.0000 -13.0516 10.2683 -15.5403
0.00 0.00 0.00 1.9420 16.5857 5.8760 0.0000 0.0000 0.0000 -14.8805 -10.6225 -7.0904 1.0551 6.5315 18.3345 0.0353 -9.9867 -7.5777 0.1142 2.1789 6.0003 0.0000 0.0000 0.0000 12.8705 12.4545 -13.4628 -1.3106 -7.2518 20.4634 -0.2761 -0.7210 -10.2130 -0.2574 3.2640 -9.0147 -4.5927 1.1641 1.2969 -3.4859 1.7509 4.6671 -0.9929 0.7876 4.0725 -5.8227 -0.6878 -3.1917 -10.0493 4.1552 37.5203 -2.4657 0.0004 13.4674 0.0000 -0.0000 0.0000 -81.0725 -0.9708 17.0534 18.4206 -28.6924 -4.7495 -0.0000 -0.0000 14.6567 23.3759 46.8459 17.5014 -7.1250 0.0000 -0.0000 -35.3080 77.1849 -27.2022 0.0000 -0.0000 0.0000 57.8738 59.6433 24.9350 -71.9446 58.7317 -44.4301 0.0000 0.0000 34.6644 -37.5401 13.5834 -10.2304 7.1250 -0.0000 -0.0000 -6.8228 -13.1211 -5.1332
0.00 0.00 0.00 0.4679 25.7024 6.4859 0.0000 0.0000 0.0000 -11.2840 -3.1621 -16.4825 2.0824 9.0356 25.9067 0.4574 2.2973 -13.8209 0.0351 -1.2097 -3.3261 0.0000 0.0000 0.0000 18.2754 7.5022 -14.2874 -1.3230 -7.2846 20.5614 -0.3547 -3.5379 -13.1161 -0.0379 1.2570 -3.4561 -3.8624 0.9526 2.8218 -5.6857 1.4463 4.5521 -3.7213 0.7353 3.1813 -8.6353 -2.5448 -3.5565 -12.2851 1.8023 30.5864 -2.7601 -1.2661 10.6469 -0.0000 -0.0000 0.0000 -78.9977 -1.1824 11.9964 18.3396 -28.5898 -4.7106 -0.0000 -0.0000 17.5502 12.6472 28.3992 6.0917 -7.1250 0.0000 -0.0000 -19.9968 57.8335 -6.4514 -0.0000 -0.0000 0.0000 57.8735 55.4088 20.2559 -91.7050 59.9890 -61.4765 0.0000 0.0000 37.2748 -28.3959 19.9905 -10.4709 7.1250 -0.0000 -0.0000 0.0135 -7.5127 0.0116
0.00 0.00 0.00 -0.9520 35.7768 6.1060 0.0000 0.0000 0.0000 -8.5422 0.5693 -19.6485 1.9856 8.8361 25.2840 -0.1341 12.3220 -15.6354 0.9197 6.1102 17.1046 0.0000 0.0000 0.0000 21.7449 3.2554 -14.2687 -1.2019 -6.9558 19.5844 -0.4066 -6.7830 -16.4130 -0.0013 -0.2286 0.6282 -4.4597 0.9284 2.1322 -8.7270 1.6730 4.7078 -6.6219 0.9392 3.8607 -11.7404 -6.6294 -2.4652 -9.5898 -4.8823 26.4903 -1.7146 -4.1330 8.9588 0.0000 -0.0000 0.0000 -76.7459 -0.6026 11.1101 20.7855 -31.5771 -5.9372 -0.0000 -0.0000 16.7411 15.1722 28.0486 7.2667 -7.1250 0.0000 -0.0000 -17.1521 58.0480 -5.5837 0.0000 -0.0000 0.0000 69.7570 43.7530 16.1940 -106.6316 58.9286 -74.3515 0.0000 0.0000 41.2237 -21.0279 11.3586 -4.3297 7.1250 -0.0000 -0.0000 4.2783 -17.8544 2.7683
0.00 0.00 0.00 -2.4647 40.7987 6.0260 0.0000 0.0000 0.0000 -7.2713 -1.1524 -18.5395 1.5417 7.8379 22.2228 -0.7210 16.8196 -14.7649 1.8736 8.5976 24.5444 0.0000 0.0000 0.0000 23.1757 2.7591 -14.1881 -1.0884 -6.6303 18.6246 -0.2283 -10.4451 -17.9858 -0.0001 0.0593 -0.1630 -3.7723 0.5229 2.2893 -9.3510 1.1191 4.2882 -7.7002 0.7087 3.3145 -12.5014 -8.3931 -0.3969 -8.3859 -8.0114 24.8742 -1.3120 -5.4414 8.1338 -0.0000 -0.0000 0.0000 -76.4382 0.4781 8.2975 21.0169 -31.8481 -6.0589 -0.0000 -0.0000 17.1587 17.8700 27.2881 8.4083 -7.1250 0.0000 -0.0000 -13.8556 57.8981 -4.4298 -0.0000 -0.0000 0.0000 68.6470 32.8279 13.5250 -122.3251 55.6579 -87.5862 0.0000 0.0000 24.9142 -20.0737 16.0566 -5.7714 7.1250 -0.0000 -0.0000 5.1137 -12.9934 3.8487
0.00 0.00 0.00 -2.9918 47.3264 7.1817 0.0000 0.0000 0.0000 -8.4789 -9.6154 -14.2184 0.8433 5.8576 16.3718 -0.7479 20.5231 -22.4889 0.6197 5.0377 14.0162 0.0000 0.0000 0.0000 21.9897 3.9862 -13.9607 -1.0973 -6.6565 18.7015 -0.3184 -13.5375 -22.5901 -0.2940 -3.4864 9.6360 -4.5030 0.3287 2.8627 -9.4584 0.7599 3.6496 -7.3907 0.5122 2.2753 -13.9382 -10.5743 1.0021 -6.2293 -11.2695 27.9258 -0.7469 -7.0398 9.2835 0.0000 -0.0000 0.0000 -75.6400 5.4066 8.0909 21.0641 -31.9031 -6.0838 -0.0000 -0.0000 13.2521 14.9713 27.9558 7.1453 -7.1250 0.0000 -0.0000 -17.3022 57.9153 -5.5788 0.0000 -0.0000 0.0000 62.0927 14.0373 6.2633 -137.8419 49.2978 -99.9397 0.0000 0.0000 22.4945 -8.3571 0.9048 -0.1329 7.1250 -0.0000 -0.0000 14.1133 -28.9299 5.6830
